<svg xmlns="http://www.w3.org/2000/svg" viewBox="0 0 24 24" width="20" height="20" fill="currentColor">
  <path d="M22.46 6c-.77.35-1.6.58-2.46.69a4.29 4.29 0 0 0 1.88-2.37 8.59 8.59 0 0 1-2.72 1.04 4.28 4.28 0 0 0-7.29 3.9 12.15 12.15 0 0 1-8.82-4.47 4.28 4.28 0 0 0 1.32 5.71c-.64-.02-1.24-.2-1.76-.49v.05a4.28 4.28 0 0 0 3.43 4.19c-.3.08-.62.12-.95.12-.23 0-.46-.02-.68-.06a4.28 4.28 0 0 0 4 2.97A8.58 8.58 0 0 1 2 19.54a12.1 12.1 0 0 0 6.56 1.92c7.88 0 12.2-6.53 12.2-12.2l-.01-.56A8.7 8.7 0 0 0 24 5.1c-.83.37-1.72.62-2.64.72z"/>
</svg>


