<svg width="154" height="37" viewBox="0 0 154 37" fill="none" xmlns="http://www.w3.org/2000/svg">
<path d="M2.39549 30V9.71615H15.1818V13.5738H6.96868V18.2715H13.9996V22.1291H6.96868V30H2.39549ZM23.6386 30.3733C22.332 30.3733 21.098 30.0622 19.9365 29.44C18.7958 28.7971 17.8729 27.8741 17.1677 26.6712C16.4626 25.4475 16.11 23.9854 16.11 22.2847C16.11 20.5632 16.4626 19.1011 17.1677 17.8981C17.8729 16.6952 18.7958 15.7826 19.9365 15.1604C21.098 14.5175 22.332 14.196 23.6386 14.196C24.9453 14.196 26.1689 14.5175 27.3096 15.1604C28.4504 15.7826 29.3733 16.6952 30.0785 17.8981C30.7836 19.1011 31.1362 20.5632 31.1362 22.2847C31.1362 23.9854 30.7836 25.4475 30.0785 26.6712C29.3733 27.8741 28.4504 28.7971 27.3096 29.44C26.1689 30.0622 24.9453 30.3733 23.6386 30.3733ZM23.6386 26.6712C24.572 26.6712 25.2771 26.2771 25.7541 25.489C26.2312 24.6802 26.4697 23.612 26.4697 22.2847C26.4697 20.9366 26.2312 19.8684 25.7541 19.0803C25.2771 18.2922 24.572 17.8981 23.6386 17.8981C22.6846 17.8981 21.9691 18.2922 21.492 19.0803C21.0358 19.8684 20.8076 20.9366 20.8076 22.2847C20.8076 23.612 21.0358 24.6802 21.492 25.489C21.9691 26.2771 22.6846 26.6712 23.6386 26.6712ZM40.1173 30.3733C38.8107 30.3733 37.5767 30.0622 36.4152 29.44C35.2745 28.7971 34.3516 27.8741 33.6464 26.6712C32.9412 25.4475 32.5887 23.9854 32.5887 22.2847C32.5887 20.5632 32.9412 19.1011 33.6464 17.8981C34.3516 16.6952 35.2745 15.7826 36.4152 15.1604C37.5767 14.5175 38.8107 14.196 40.1173 14.196C41.424 14.196 42.6476 14.5175 43.7883 15.1604C44.929 15.7826 45.852 16.6952 46.5571 17.8981C47.2623 19.1011 47.6149 20.5632 47.6149 22.2847C47.6149 23.9854 47.2623 25.4475 46.5571 26.6712C45.852 27.8741 44.929 28.7971 43.7883 29.44C42.6476 30.0622 41.424 30.3733 40.1173 30.3733ZM40.1173 26.6712C41.0506 26.6712 41.7558 26.2771 42.2328 25.489C42.7098 24.6802 42.9484 23.612 42.9484 22.2847C42.9484 20.9366 42.7098 19.8684 42.2328 19.0803C41.7558 18.2922 41.0506 17.8981 40.1173 17.8981C39.1633 17.8981 38.4477 18.2922 37.9707 19.0803C37.5144 19.8684 37.2863 20.9366 37.2863 22.2847C37.2863 23.612 37.5144 24.6802 37.9707 25.489C38.4477 26.2771 39.1633 26.6712 40.1173 26.6712ZM55.476 30.3733C53.568 30.3733 52.0332 29.6578 50.8717 28.2267C49.731 26.7749 49.1607 24.7942 49.1607 22.2847C49.1607 20.6047 49.4614 19.1633 50.0629 17.9604C50.6851 16.7367 51.4836 15.8034 52.4584 15.1604C53.4539 14.5175 54.4909 14.196 55.5694 14.196C56.4197 14.196 57.1353 14.3412 57.716 14.6316C58.2967 14.9219 58.8463 15.316 59.3648 15.8138L59.1782 13.4494V8.19175H63.7514V30H60.0181L59.707 28.4756H59.5826C59.0433 29.0148 58.4108 29.4711 57.6849 29.8444C56.959 30.197 56.2227 30.3733 55.476 30.3733ZM56.6582 26.6401C57.156 26.6401 57.6019 26.5364 57.996 26.329C58.4108 26.1216 58.8048 25.7586 59.1782 25.2401V18.9248C58.7841 18.5514 58.3589 18.2922 57.9026 18.147C57.4671 18.0018 57.0419 17.9292 56.6271 17.9292C55.9012 17.9292 55.2583 18.2818 54.6983 18.987C54.1383 19.6714 53.8583 20.7499 53.8583 22.2225C53.8583 23.7365 54.0968 24.8564 54.5738 25.5824C55.0716 26.2875 55.7664 26.6401 56.6582 26.6401Z" fill="#F17228"/>
<path d="M69.2032 30L65.4388 9.71615H70.1365L71.5364 19.2048C71.6609 20.2625 71.7957 21.3306 71.9409 22.4091C72.0861 23.4669 72.2209 24.535 72.3453 25.6135H72.4697C72.6771 24.535 72.8742 23.4669 73.0608 22.4091C73.2682 21.3306 73.4756 20.2625 73.683 19.2048L75.8608 9.71615H79.7495L81.9272 19.2048C82.1346 20.221 82.3317 21.2684 82.5183 22.3469C82.7257 23.4254 82.9331 24.5142 83.1405 25.6135H83.265C83.4102 24.5142 83.545 23.4357 83.6694 22.378C83.8146 21.2995 83.9598 20.2418 84.105 19.2048L85.5049 9.71615H89.8915L86.2827 30H80.5273L78.5362 20.7914C78.3703 20.0033 78.2148 19.2151 78.0696 18.427C77.9451 17.6181 77.8311 16.8404 77.7274 16.0937H77.6029C77.4785 16.8404 77.3437 17.6181 77.1985 18.427C77.0741 19.2151 76.9289 20.0033 76.763 20.7914L74.8652 30H69.2032ZM95.0793 30.3733C93.669 30.3733 92.549 29.9274 91.7194 29.0356C90.8898 28.123 90.475 27.0134 90.475 25.7068C90.475 24.0891 91.1594 22.8239 92.5283 21.9113C93.8971 20.9988 96.106 20.3869 99.1548 20.0758C99.1133 19.3914 98.9059 18.8522 98.5326 18.4581C98.18 18.0433 97.5785 17.8359 96.7282 17.8359C96.0852 17.8359 95.4319 17.9604 94.7682 18.2092C94.1045 18.4581 93.3994 18.8003 92.6527 19.2359L91.0039 16.2182C91.9787 15.6167 93.0157 15.1293 94.1149 14.756C95.2349 14.3827 96.3963 14.196 97.5992 14.196C99.5696 14.196 101.084 14.7664 102.141 15.9071C103.199 17.0478 103.728 18.8003 103.728 21.1647V30H99.9947L99.6836 28.4134H99.5592C98.9162 28.9941 98.2214 29.4711 97.4748 29.8444C96.7489 30.197 95.9504 30.3733 95.0793 30.3733ZM96.6348 26.8268C97.1533 26.8268 97.5992 26.7127 97.9726 26.4845C98.3666 26.2357 98.7607 25.9142 99.1548 25.5201V22.8135C97.537 23.0209 96.4171 23.3528 95.7949 23.8091C95.1726 24.2446 94.8615 24.7631 94.8615 25.3646C94.8615 25.8623 95.0171 26.2357 95.3282 26.4845C95.66 26.7127 96.0956 26.8268 96.6348 26.8268ZM112.325 36.5643C111.122 36.5643 110.033 36.4294 109.058 36.1598C108.084 35.8902 107.306 35.465 106.725 34.8843C106.145 34.3036 105.854 33.5569 105.854 32.6444C105.854 31.4 106.59 30.363 108.063 29.5333V29.4089C107.669 29.1393 107.327 28.7971 107.036 28.3823C106.767 27.9675 106.632 27.4386 106.632 26.7956C106.632 26.2357 106.798 25.6964 107.13 25.1779C107.462 24.6594 107.876 24.2342 108.374 23.9024V23.778C107.835 23.4046 107.347 22.8654 106.912 22.1602C106.497 21.4551 106.29 20.6566 106.29 19.7647C106.29 18.5203 106.59 17.4937 107.192 16.6848C107.793 15.8552 108.581 15.233 109.556 14.8182C110.531 14.4034 111.568 14.196 112.667 14.196C113.58 14.196 114.378 14.3205 115.063 14.5693H120.694V17.8981H118.236C118.381 18.1263 118.495 18.4166 118.578 18.7692C118.682 19.1218 118.734 19.5055 118.734 19.9203C118.734 21.1025 118.464 22.0773 117.925 22.8447C117.386 23.612 116.66 24.1824 115.747 24.5557C114.835 24.929 113.808 25.1157 112.667 25.1157C112.066 25.1157 111.444 25.012 110.801 24.8046C110.427 25.1157 110.241 25.4994 110.241 25.9557C110.241 26.3497 110.417 26.6401 110.77 26.8268C111.122 27.0134 111.724 27.1068 112.574 27.1068H115.063C116.971 27.1068 118.423 27.4179 119.418 28.0401C120.434 28.6415 120.943 29.637 120.943 31.0266C120.943 32.0844 120.59 33.0281 119.885 33.8577C119.18 34.708 118.184 35.3717 116.898 35.8487C115.612 36.3257 114.088 36.5643 112.325 36.5643ZM112.667 22.3469C113.269 22.3469 113.767 22.1291 114.161 21.6936C114.575 21.258 114.783 20.6151 114.783 19.7647C114.783 18.9559 114.575 18.344 114.161 17.9292C113.767 17.4937 113.269 17.2759 112.667 17.2759C112.066 17.2759 111.558 17.4833 111.143 17.8981C110.749 18.3129 110.552 18.9351 110.552 19.7647C110.552 20.6151 110.749 21.258 111.143 21.6936C111.558 22.1291 112.066 22.3469 112.667 22.3469ZM113.041 33.7021C114.078 33.7021 114.928 33.5155 115.592 33.1421C116.255 32.7688 116.587 32.3229 116.587 31.8044C116.587 31.3274 116.38 31.0059 115.965 30.84C115.571 30.6741 114.99 30.5911 114.223 30.5911H112.636C112.118 30.5911 111.682 30.5704 111.33 30.5289C110.998 30.5081 110.707 30.4667 110.458 30.4044C109.898 30.9022 109.618 31.4103 109.618 31.9288C109.618 32.5096 109.93 32.9451 110.552 33.2355C111.195 33.5466 112.024 33.7021 113.041 33.7021ZM129.019 30.3733C127.546 30.3733 126.219 30.0519 125.037 29.4089C123.855 28.766 122.921 27.843 122.237 26.6401C121.552 25.4372 121.21 23.9854 121.21 22.2847C121.21 20.6047 121.552 19.1633 122.237 17.9604C122.942 16.7574 123.855 15.8345 124.975 15.1915C126.094 14.5279 127.266 14.196 128.49 14.196C129.963 14.196 131.176 14.5279 132.13 15.1915C133.105 15.8345 133.831 16.7159 134.308 17.8359C134.805 18.9351 135.054 20.1899 135.054 21.6002C135.054 21.9943 135.033 22.3884 134.992 22.7824C134.951 23.1558 134.909 23.4357 134.868 23.6224H125.628C125.835 24.7424 126.302 25.572 127.028 26.1112C127.754 26.6297 128.625 26.889 129.641 26.889C130.74 26.889 131.85 26.5468 132.97 25.8623L134.494 28.6312C133.706 29.1704 132.825 29.5956 131.85 29.9067C130.875 30.2178 129.931 30.3733 129.019 30.3733ZM125.597 20.6047H131.165C131.165 19.7544 130.958 19.0596 130.543 18.5203C130.149 17.9604 129.496 17.6804 128.583 17.6804C127.878 17.6804 127.246 17.9292 126.686 18.427C126.126 18.904 125.763 19.6299 125.597 20.6047ZM137.437 30V14.5693H141.17L141.481 16.5293H141.605C142.269 15.9071 142.995 15.3678 143.783 14.9116C144.592 14.4345 145.515 14.196 146.552 14.196C148.232 14.196 149.445 14.756 150.192 15.876C150.959 16.9752 151.343 18.4892 151.343 20.4181V30H146.77V21.0092C146.77 19.8892 146.614 19.1218 146.303 18.707C146.013 18.2922 145.536 18.0848 144.872 18.0848C144.291 18.0848 143.793 18.2196 143.379 18.4892C142.964 18.7381 142.508 19.1011 142.01 19.5781V30H137.437Z" fill="#FFB30E"/>
</svg>
